<svg version="1.1" xmlns="http://www.w3.org/2000/svg" xmlns:xlink="http://www.w3.org/1999/xlink" width="215.13929" height="157.86997" viewBox="0,0,215.13929,157.86997"><defs><linearGradient x1="241.73808" y1="192.67041" x2="266.15963" y2="192.67041" gradientUnits="userSpaceOnUse" id="color-1"><stop offset="0" stop-color="#e0e0e0"/><stop offset="1" stop-color="#adadad"/></linearGradient><linearGradient x1="217.63787" y1="192.67041" x2="242.05942" y2="192.67041" gradientUnits="userSpaceOnUse" id="color-2"><stop offset="0" stop-color="#adadad"/><stop offset="1" stop-color="#e0e0e0"/></linearGradient><linearGradient x1="241.73808" y1="240.06828" x2="266.15963" y2="240.06828" gradientUnits="userSpaceOnUse" id="color-3"><stop offset="0" stop-color="#e0e0e0"/><stop offset="1" stop-color="#adadad"/></linearGradient><linearGradient x1="217.63787" y1="240.06828" x2="242.05942" y2="240.06828" gradientUnits="userSpaceOnUse" id="color-4"><stop offset="0" stop-color="#adadad"/><stop offset="1" stop-color="#e0e0e0"/></linearGradient><linearGradient x1="174.6862" y1="226.17453" x2="241.07043" y2="226.17453" gradientUnits="userSpaceOnUse" id="color-5"><stop offset="0" stop-color="#b6975d"/><stop offset="1" stop-color="#dab46f"/></linearGradient><linearGradient x1="240.74661" y1="226.17453" x2="307.13082" y2="226.17453" gradientUnits="userSpaceOnUse" id="color-6"><stop offset="0" stop-color="#d8b36e"/><stop offset="1" stop-color="#b6975d"/></linearGradient><linearGradient x1="347.56963" y1="197.21002" x2="304.73214" y2="197.21002" gradientUnits="userSpaceOnUse" id="color-7"><stop offset="0" stop-color="#b6975d"/><stop offset="1" stop-color="#d8b36e"/></linearGradient><linearGradient x1="132.43034" y1="196.71489" x2="175.26785" y2="196.71489" gradientUnits="userSpaceOnUse" id="color-8"><stop offset="0" stop-color="#b6975d"/><stop offset="1" stop-color="#d8b36e"/></linearGradient><linearGradient x1="174.6862" y1="164.77966" x2="241.07043" y2="164.77966" gradientUnits="userSpaceOnUse" id="color-9"><stop offset="0" stop-color="#b6975d"/><stop offset="1" stop-color="#dab46f"/></linearGradient><linearGradient x1="240.74661" y1="164.77966" x2="307.13082" y2="164.77966" gradientUnits="userSpaceOnUse" id="color-10"><stop offset="0" stop-color="#d8b36e"/><stop offset="1" stop-color="#b6975d"/></linearGradient></defs><g transform="translate(-132.43036,-101.06502)"><g data-paper-data="{&quot;isPaintingLayer&quot;:true}" fill-rule="nonzero" stroke-linejoin="miter" stroke-miterlimit="10" stroke-dasharray="" stroke-dashoffset="0" style="mix-blend-mode: normal"><g><g stroke-width="0" stroke-linecap="butt"><g stroke="#000000"><g><path d="M241.73808,235.9924v-86.64398h24.42155v86.64398z" fill="url(#color-1)"/><path d="M217.63787,235.9924v-86.64398h24.42155v86.64398z" fill="url(#color-2)"/></g><g><path d="M241.73808,257.9265v-22.60643h24.42155z" fill="url(#color-3)"/><path d="M217.63787,235.32009h24.42155l-0.44928,23.61489z" fill="url(#color-4)"/></g></g><path d="M202.9851,163.13845c0,0 -7.99471,1.08144 -8.69436,-3.991c-0.60767,-4.40558 6.71388,-13.3382 6.71388,-13.3382c0,0 16.69622,-5.07345 31.72394,-6.56687c0.65415,-0.06501 0.0397,-28.81282 -0.13353,-36.38577c-0.02628,-1.14897 0.63507,-1.80319 1.72132,-1.79144c3.87164,0.04188 12.93618,0.13993 15.0276,0.16254c0.84226,0.00911 1.66639,0.59917 1.67871,1.61748c0.08681,7.1773 0.5032,36.06873 1.58296,36.21353c13.65645,1.83143 31.08406,6.75052 31.08406,6.75052c0,0 6.7454,7.53992 5.75333,11.72076c-1.25576,5.29214 -11.69477,5.11332 -11.69477,5.11332c0,0 -2.09341,-2.78939 -9.4526,-4.22353c-8.99068,-1.75209 -18.19221,-3.69839 -25.70092,-3.69839c-7.70554,0 -19.64598,1.97734 -28.75968,3.7401c-7.3293,1.41762 -10.84992,4.67694 -10.84992,4.67694z" fill="#967c4c" stroke="none"/></g><g stroke="none" stroke-width="0" stroke-linecap="butt"><path d="M174.6862,227.28856v-2.22804h66.38422v2.22804z" fill="url(#color-5)"/><path d="M240.74661,227.28856v-2.22804h66.38422v2.22804z" fill="url(#color-6)"/></g><path d="M335.31512,210.86184l-0.33526,2.15139c-0.45375,0.55686 -1.00407,1.45632 -0.62054,2.06368c3.41518,2.43401 5.94439,-1.68673 7.23066,-4.59288c1.3538,-3.05871 -1.72887,-8.28219 -4.41206,-9.70773c-1.15573,-0.61403 -5.48682,0.85258 -6.49789,1.08297c-1.92815,0.43935 -3.83915,1.2951 -5.69882,2.09288c-0.02152,0.10435 -0.04251,0.20884 -0.06294,0.31346c0,0 -0.00287,0.01438 -0.00931,0.04063c0.11551,1.16335 0.14983,2.31818 0.04698,3.4561c-0.36047,3.98788 -1.68284,6.11603 -4.15909,9.16357c-4.10843,2.09828 -6.85628,2.40509 -11.35964,2.40509h-2.35254c0,0 -2.35254,0 -2.35254,-2.35254c0,-2.35254 2.35254,-2.35254 2.35254,-2.35254h2.35254c3.22798,0 5.45643,0.06059 8.40167,-1.35898c4.35234,-5.59441 1.17303,-10.98794 0.54943,-17.2295c-0.43275,-4.33139 0.47253,-9.43534 2.69243,-13.23131c3.22948,-5.52232 10.80333,-7.89936 16.59605,-9.06867c0,0 2.30685,-0.46137 2.76822,1.84548c0.46137,2.30685 -1.84548,2.76822 -1.84548,2.76822c-2.48587,0.49197 -5.15544,1.14195 -7.47697,2.183c-1.34786,0.60442 -3.04998,1.974 -4.11914,2.90919c-3.8622,3.3783 -4.22873,7.32621 -3.69917,11.4549c2.59457,-4.77914 6.60991,-8.57166 12.28154,-10.28728c2.5535,-0.77241 5.1066,-0.56803 7.72796,-0.56803l2.4526,0.54075c0,0 2.2823,0.57057 1.71172,2.85287c-0.57057,2.28229 -2.85287,1.71172 -2.85287,1.71172l-1.31146,-0.40027c-2.13167,0 -4.31236,-0.24182 -6.38726,0.37297c-4.964,1.47083 -8.23119,5.00703 -10.19388,9.34137c1.98277,-0.60296 3.97665,-1.11686 6.09297,-1.63592c0.94701,-0.23227 1.77138,-0.95736 2.74497,-1.01096c6.26643,-0.34506 11.0915,7.55568 11.03676,13.16436c-0.02722,2.78868 -0.85449,3.65169 -2.21729,5.91544c-2.29506,3.81233 -6.12732,7.31627 -10.97614,5.17184c-1.06949,-0.47299 -1.85937,-1.41877 -2.78904,-2.12815c-0.47293,-1.32382 -1.48006,-2.56703 -1.41879,-3.97145c0.05515,-1.26441 1.1595,-2.25 1.73926,-3.37501l-0.33526,0.26936c0,0 0,-2.35254 2.35254,-2.35254c2.35254,0 2.35254,2.35254 2.35254,2.35254z" data-paper-data="{&quot;index&quot;:null}" fill="url(#color-7)" stroke="none" stroke-width="0.5" stroke-linecap="butt"/><g><g><path d="M199.96827,189.15367c-0.14187,0.89491 -0.46647,2.94231 -0.71501,4.51011c-0.18128,1.14345 -0.83038,2.12382 -1.68275,2.22679c-3.24207,0.39168 -11.46232,0.94178 -15.62556,-2.81127c-5.25778,-4.73975 -3.16793,-14.09001 0.88328,-17.56162c5.29473,-4.53723 14.30959,-3.56918 17.99562,-2.9297c1.03032,0.17874 1.53935,1.05605 1.39854,2.02794c-0.22568,1.55759 -0.54353,3.75129 -0.66931,4.61941c-0.10283,0.70968 -0.83526,1.4573 -1.79166,1.29489c-2.35998,-0.40075 -6.86945,-0.919 -9.76695,0.30551c-2.41742,1.02163 -2.92004,3.20056 -2.70178,4.1566c0.38855,1.70205 1.48167,2.02816 4.05561,2.47715c2.36978,0.41338 5.59692,0.13665 7.45358,-0.08846c0.90171,-0.10933 1.30135,0.92143 1.16641,1.77266z" fill="#0053bd" stroke="#000000" stroke-width="2.5" stroke-linecap="round"/><path d="M219.95691,193.50452c0.1622,1.21374 -0.11535,1.96865 -0.72848,1.99057c-0.80008,0.0286 -2.01911,0.07213 -3.38809,0.12088c-1.27324,0.04534 -3.37389,-11.86541 -4.69016,-11.81886c-1.88303,0.06659 -2.89095,12.087 -3.78554,12.11715c-1.48246,0.04997 -2.65638,0.0848 -3.48286,0.10765c-0.92494,0.02557 -1.40963,-0.85452 -1.33379,-2.30996c0.23063,-4.42595 1.11583,-14.07461 4.504,-19.78101c2.09361,-3.52608 7.43001,-2.23077 8.67144,-0.19934c1.84849,3.02481 3.5982,15.01906 4.23347,19.77292z" fill="#0053bd" stroke="#000000" stroke-width="2.5" stroke-linecap="round"/><path d="M240.50226,194.04433c0.31375,0.47062 -0.04523,0.90947 -0.87929,0.92337c-1.16259,0.01937 -2.69372,0.04489 -3.36201,0.05603c-0.63356,0.01056 -1.70878,-0.47371 -2.07627,-1.25275c-1.25741,-2.66568 -4.07941,-8.61847 -4.45099,-9.14307c-0.48018,-0.67791 -1.13746,-3.55494 -2.10513,0.31577c-0.37902,1.51609 -0.2261,3.41089 -0.28398,5.15514c-0.04211,1.26926 -0.09796,2.45882 -0.14542,3.3647c-0.05384,1.0275 -0.67679,1.69006 -1.35998,1.69006c-0.68979,0 -1.48486,0 -1.89462,0c-0.51582,0 -1.25371,-0.69343 -1.24317,-1.47333c0.03454,-2.55602 0.2242,-16.59108 0.28026,-20.73889c0.00988,-0.73088 0.7482,-1.20991 1.40774,-1.25955c1.61978,-0.12192 6.7046,-0.37116 8.39672,-0.4215c2.95658,-0.08796 6.10014,0.93666 5.99964,4.42079c-0.04416,1.53084 -0.8477,4.19874 -2.20685,5.29274c-0.99551,0.80129 -2.20196,1.01963 -3.04914,1.06025c-0.62862,0.03013 -0.6883,0.51911 -0.10401,1.39553c1.93198,2.89796 6.1945,9.29174 7.07649,10.61472z" fill="#0053bd" stroke="#000000" stroke-width="2.5" stroke-linecap="round"/><path d="M241.20638,175.04055c-0.01541,-0.56994 -0.04682,-1.73239 -0.07067,-2.61475c-0.01752,-0.64816 0.64741,-1.14098 1.41438,-1.13625c2.41322,0.0149 12.20385,0.09409 17.07862,0.12418c1.1696,0.00722 2.05628,1.16326 2.07545,1.89164c0.01487,0.56503 0.04288,1.6296 0.0647,2.45849c0.0172,0.65365 -0.78894,1.14967 -2.14491,1.13408c-2.60871,-0.02998 -3.91779,-0.07664 -5.35016,-0.09311c-0.99353,-0.01142 -2.17048,1.0851 -2.17048,2.14582c0,2.15244 0,10.06088 0,14.03762c0,1.40212 -1.08251,2.31548 -1.88133,2.31548c-0.73728,0 -2.3013,0 -3.61794,0c-1.18569,0 -2.17077,-0.84822 -2.17077,-2.17077c0,-4.14747 0,-12.95967 0,-14.90594c0,-0.74725 -1.06948,-1.49579 -1.60174,-1.51998c-0.52898,-0.02405 -1.60775,-1.02274 -1.62515,-1.66655z" data-paper-data="{&quot;index&quot;:null}" fill="#0053bd" stroke="#000000" stroke-width="2.5" stroke-linecap="round"/><path d="M255.29587,186.8565c0,-4.43806 1.88345,-7.82153 6.32151,-7.82153c2.39632,0 7.74213,-0.29064 12.472,-0.14591c5.40841,0.1655 6.59969,3.03281 6.70682,7.8603c0.11749,5.29385 -2.37962,7.80908 -6.22191,8.09988c-4.8735,0.36883 -10.49254,0.25738 -12.95691,0.25738c-4.43806,0 -6.32151,-3.81205 -6.32151,-8.25011z" fill="#0053bd" stroke="#000000" stroke-width="2.5" stroke-linecap="butt"/><path d="M288.94524,193.48536c0.01706,0.65406 -0.40619,1.32457 -1.00072,1.32929c-0.96084,0.00762 -2.32361,0.01844 -2.87789,0.02284c-0.47041,0.00373 -1.08911,-0.53863 -1.11226,-1.47234c-0.12598,-5.08138 -0.5358,-21.61087 -0.58756,-23.69802c-0.01058,-0.42641 0.5033,-0.7516 0.85027,-0.75264c0.27173,-0.00083 0.79148,-0.0024 1.2245,-0.00371c0.39294,-0.00118 1.03553,0.50671 1.38299,1.05749c0.99573,1.57836 5.86849,9.30221 7.6851,12.18173c0.42638,0.67586 0.68961,0.37689 0.69484,-0.33602c0.01316,-1.79009 0.07047,-9.58379 0.09009,-12.25137c0.00415,-0.56444 0.55806,-0.89938 0.98865,-0.89938c0.5049,0 1.74378,0 2.63269,0c0.56759,0 0.99401,0.37122 0.99671,1.02343c0.01802,4.36126 0.08796,21.28691 0.09833,23.79761c0.00252,0.60976 -0.34427,1.10274 -0.80121,1.09601c-0.67527,-0.00994 -1.58659,-0.02336 -1.95698,-0.02881c-0.31591,-0.00465 -0.99896,-0.44514 -1.3054,-0.914c-0.86116,-1.31762 -5.00805,-7.66252 -6.63353,-10.14955c-0.40674,-0.62232 -0.64616,-0.64102 -0.63063,-0.04627c0.06232,2.38905 0.2226,8.53252 0.26201,10.04369z" fill="#0053bd" stroke="#000000" stroke-width="2.5" stroke-linecap="round"/><path d="M189.67593,177.87362c0.01075,-0.00802 0.0214,-0.01615 0.03197,-0.02437c-0.01586,0.00387 -0.03143,0.00759 -0.04673,0.01118zM188.37258,178.5251c-0.09509,-0.06551 -0.17057,-0.13677 -0.22996,-0.21116c-0.38309,0.29263 -0.76128,0.58861 -1.09571,0.91572c0.19,-0.11328 0.37913,-0.22612 0.56714,-0.33859c0.24042,-0.14382 0.49816,-0.25742 0.75854,-0.36597zM191.80073,173.17684c0.19497,-0.26591 0.50964,-0.43855 0.86463,-0.43855c0.59174,0 1.07144,0.4797 1.07144,1.07144c0,0.14926 -0.03052,0.29139 -0.08566,0.42049l-0.41955,1.04888c-0.61478,1.51821 -0.85234,3.22406 -2.27166,4.30969c-0.66623,0.50958 -1.52476,0.70721 -2.24338,1.13978c-2.31492,1.39342 -4.84094,2.81934 -6.97991,4.43846c0,0 -0.85715,0.64287 -1.50002,-0.21429c-0.64287,-0.85715 0.21429,-1.50002 0.21429,-1.50002c0.11671,-0.08685 0.23438,-0.17326 0.35294,-0.25923c-0.07497,-0.0739 -0.14639,-0.1662 -0.21177,-0.28063c-0.53158,-0.93028 0.39869,-1.46186 0.39869,-1.46186c3.40541,-1.93456 5.63002,-5.10142 8.67454,-7.42697l0.31382,-0.32904c0,0 0.72605,-0.72605 1.46739,-0.04587z" fill="#4584d6" stroke="none" stroke-width="0.5" stroke-linecap="butt"/><path d="M211.71386,178.34145c-0.00295,-0.05725 -0.00025,-0.11231 0.00698,-0.16504c-0.10033,0.09796 -0.20154,0.19747 -0.30492,0.29814c0.09906,-0.04459 0.19844,-0.08887 0.29794,-0.1331zM212.40072,177.6711c0.01931,-0.05572 0.03603,-0.11324 0.05095,-0.17203c-0.03649,0.03096 -0.07269,0.06224 -0.10867,0.09381zM215.80853,175.73835c0.59174,0 1.07144,0.4797 1.07144,1.07144c0,0.24511 -0.0823,0.47099 -0.22078,0.65152l-0.63637,0.8485l-0.04093,-0.0307l-0.0586,0.14546c-1.35146,1.01596 -2.85065,1.59393 -4.35299,2.34511c-1.88523,0.94262 -3.677,2.05153 -5.56844,2.99852c0,0 -0.95832,0.47916 -1.43749,-0.47916c-0.47916,-0.95832 0.47916,-1.43749 0.47916,-1.43749c0.13804,-0.06892 0.27555,-0.13873 0.41261,-0.20931c-0.51278,-0.80861 0.28084,-1.40383 0.28084,-1.40383c1.22419,-0.91573 2.43063,-1.73122 3.58376,-2.73802c1.36273,-1.18981 2.22373,-2.2675 3.94699,-2.97113l0.06888,-0.19139c0,0 0.75763,-0.75763 1.51525,0c0.58033,0.58033 0.27161,1.16067 0.09534,1.40049z" fill="#4584d6" stroke="none" stroke-width="0.5" stroke-linecap="butt"/><path d="M236.70927,172.19497c0.75763,0.75763 0,1.51525 0,1.51525l-0.75763,0.74239c-1.77553,1.33165 -3.26054,2.64355 -4.81388,4.18624c-1.48615,1.47597 -3.58051,2.48447 -5.33269,3.57958c0,0 -0.90858,0.56786 -1.47644,-0.34072c-0.18746,-0.29994 -0.21403,-0.56276 -0.16549,-0.78027c-0.03731,-0.03029 -0.07473,-0.06401 -0.11214,-0.10142c-0.75763,-0.75763 0,-1.51525 0,-1.51525c0.93985,-0.93985 1.82319,-2.133 2.79461,-3.0088c1.86632,-1.68262 4.21736,-2.70901 5.99122,-4.49131l0.21429,-0.21429c0,0 0.75763,-0.75763 1.51525,0c0.25191,0.25191 0.3363,0.50382 0.33672,0.72788l0.29091,-0.29931c0,0 0.75763,-0.75763 1.51525,0zM229.62252,177.12361c0.16269,-0.16408 0.32501,-0.32554 0.4873,-0.48466c-0.61168,0.42217 -1.20919,0.8651 -1.76666,1.36579c-0.19951,0.1792 -0.39519,0.37209 -0.58833,0.57364c0.68248,-0.43654 1.32784,-0.91029 1.8677,-1.45477z" fill="#4584d6" stroke="none" stroke-width="0.5" stroke-linecap="butt"/><path d="M255.42536,174.6896c-0.0332,1.4464 -1.39237,1.50964 -2.23429,1.98277c-2.13022,1.19711 -3.87899,2.8452 -5.99342,4.0677c0,0 -0.93028,0.53159 -1.46186,-0.39869c-0.35581,-0.62268 -0.05669,-1.06673 0.18004,-1.2923c-0.13584,-0.08204 -0.26738,-0.20996 -0.38281,-0.40234c-0.55125,-0.91875 0.3675,-1.47 0.3675,-1.47c2.25696,-1.35052 3.43936,-3.52266 5.47989,-5.08133l0.85715,-0.21429c0,0 0.98581,0 1.06623,0.9456c1.04278,-0.80454 2.18299,-0.8139 2.12155,1.86287z" fill="#4584d6" stroke="none" stroke-width="0.5" stroke-linecap="butt"/><path d="M261.34053,188.07928c-0.55653,0.55518 -1.0379,1.13242 -1.52974,1.70135c1.17452,-1.05531 2.40935,-2.0461 3.46313,-3.21321c-0.68833,0.47313 -1.36933,0.94917 -1.93338,1.51187zM256.55739,191.42446c-0.68592,-0.82311 0.13718,-1.50903 0.13718,-1.50903c1.24939,-1.03526 2.02675,-2.24471 3.15455,-3.37488c1.26321,-1.26586 3.35463,-2.10089 4.39534,-3.52529c0.22693,-0.3106 0.19634,-0.7648 0.42858,-1.07144c0.4247,-0.56077 1.07785,-0.92349 1.49329,-1.49114l0.74239,-0.75763c0,0 0.64708,-0.64708 1.34324,-0.14719c0.08628,-0.12697 0.17652,-0.25387 0.27154,-0.3809l0.31382,-0.32904c0,0 0.75763,-0.75763 1.51525,0c0.75763,0.75763 0,1.51525 0,1.51525l-0.11476,0.09953c-0.71046,0.94452 -1.06046,1.88095 -1.63742,2.8821c-0.40128,0.69631 -1.10227,1.1704 -1.67644,1.73272c-0.78172,0.76558 -1.15046,1.90103 -1.8768,2.73013c-1.69416,1.93389 -3.90948,3.34913 -5.55782,5.34113c0,0 -0.68592,0.82311 -1.50903,0.13718c-0.82311,-0.68592 -0.13718,-1.50903 -0.13718,-1.50903c0.03468,-0.04136 0.06959,-0.08248 0.10473,-0.12336c-0.2522,0.15351 -0.86203,0.415 -1.39046,-0.2191z" fill="#4584d6" stroke="none" stroke-width="0.5" stroke-linecap="butt"/><path d="M291.28253,177.78954c0.75763,0.75763 0,1.51525 0,1.51525l-0.11476,0.09953c-1.42198,1.88673 -3.38805,2.9669 -5.02817,4.61482c0,0 -0.75763,0.75763 -1.51525,0c-0.75763,-0.75763 0,-1.51525 0,-1.51525c0.47456,-0.47258 0.98233,-0.89711 1.49672,-1.30905c-0.15422,0.08122 -0.94762,0.44445 -1.44356,-0.38211c-0.55125,-0.91875 0.3675,-1.47 0.3675,-1.47c1.68295,-1.00704 2.67522,-2.42107 4.19416,-3.58131l0.09953,-0.11476c0,0 0.75763,-0.75763 1.51525,0c0.75763,0.75763 0,1.51525 0,1.51525l-0.30504,0.29092c0.2255,-0.00102 0.47956,0.08265 0.73362,0.33671z" fill="#4584d6" stroke="none" stroke-width="0.5" stroke-linecap="butt"/><path d="M299.85408,173.71807c0.75763,0.75763 0,1.51525 0,1.51525l-0.54333,0.52811c-0.48911,0.35796 -0.92777,0.79663 -1.28573,1.28573c0,0 -0.64287,0.85715 -1.50002,0.21429c-0.85715,-0.64287 -0.21429,-1.50002 -0.21429,-1.50002c0.22516,-0.29477 0.46949,-0.57675 0.73005,-0.84304c-0.23765,-0.01917 -0.49783,-0.13307 -0.73005,-0.4427c-0.64287,-0.85715 0.21429,-1.50002 0.21429,-1.50002c0.57144,-0.42858 1.14287,-0.85715 1.7143,-1.28573l0.85715,-0.21429c0,0 1.07144,0 1.07144,1.07144c0,0.56809 -0.30121,0.83497 -0.58421,0.96036c0.08927,0.05114 0.17983,0.12006 0.2704,0.21062z" fill="#4584d6" stroke="none" stroke-width="0.5" stroke-linecap="butt"/><path d="M206.78663,176.36993l0.59433,-0.39423c1.56151,-1.14282 2.67517,-2.66966 4.37739,-3.70451c0,0 0.91875,-0.55125 1.47,0.3675c0.01911,0.03185 0.03646,0.06328 0.05214,0.09424l0.74341,-0.18585c0,0 1.07144,0 1.07144,1.07144c0,1.07144 -1.07144,1.07144 -1.07144,1.07144v-0.42858c-0.44873,0.58746 -1.0753,1.01792 -1.56152,1.57474c-0.86513,0.99075 -1.38787,1.94422 -2.65556,2.58865c-0.66101,0.33602 -1.41097,0.52556 -1.99728,0.97953c0,0 -0.85715,0.64287 -1.50002,-0.21429c-0.51038,-0.6805 -0.07531,-1.22594 0.1257,-1.42185c-0.48201,-0.84262 0.35142,-1.39824 0.35142,-1.39824z" fill="#ffffff" stroke="none" stroke-width="0.5" stroke-linecap="butt"/><path d="M188.94089,173.46498c1.01646,0.33882 0.67764,1.35528 0.67764,1.35528l-1.02062,1.35469c-2.81015,0.47193 -4.32006,3.55626 -6.4245,5.16373c0,0 -0.85715,0.64287 -1.50002,-0.21429c-0.64287,-0.85715 0.21429,-1.50002 0.21429,-1.50002c1.18113,-0.86443 1.84061,-2.20257 2.92532,-3.15282c1.20002,-1.05127 2.83499,-2.06006 4.36465,-2.39787l-0.59204,0.06895c0,0 0.33882,-1.01646 1.35528,-0.67764z" fill="#ffffff" stroke="none" stroke-width="0.5" stroke-linecap="butt"/><path d="M223.53109,175.7672c0,-0.02883 0.00114,-0.05741 0.00338,-0.08566c-0.29909,-0.11318 -0.64624,-0.37591 -0.64624,-0.98578c0,-1.07144 1.07144,-1.07144 1.07144,-1.07144v0.21429c0.38706,-0.26739 0.71846,-0.6431 1.1612,-0.80218c0.33611,-0.12076 0.73145,0.10935 1.07144,0c0.68036,-0.21883 1.20784,-0.77963 1.8695,-1.0498c0,0 0.99481,-0.39792 1.39273,0.59689c0.00742,0.01854 0.01435,0.03688 0.02082,0.05502c0.23455,-0.1692 0.46758,-0.34042 0.69868,-0.51425l0.85715,-0.64287c0,0 0.85715,-0.64287 1.50002,0.21429c0.64287,0.85715 -0.21429,1.50002 -0.21429,1.50002l-0.85715,0.64287c-2.09263,1.56535 -4.3284,2.92486 -6.42866,4.50006c0,0 -0.85715,0.64287 -1.50002,-0.21429c-0.64287,-0.85715 0.21429,-1.50002 0.21429,-1.50002c0.03798,-0.02849 0.07602,-0.0569 0.11408,-0.08525c-0.20243,-0.19491 -0.32838,-0.4687 -0.32838,-0.7719z" fill="#ffffff" stroke="none" stroke-width="0.5" stroke-linecap="butt"/><path d="M243.67422,172.33858c0.4135,0 0.66742,0.15958 0.82334,0.35557c0.27617,-0.40698 0.56641,-0.80802 0.88208,-1.20599l0.29557,-0.04l-0.04175,-0.10439l1.04888,-0.41955c0.1291,-0.05514 0.27123,-0.08566 0.42049,-0.08566c0.59174,0 1.07144,0.4797 1.07144,1.07144c0,0.09577 -0.01257,0.18861 -0.03614,0.27696c0.04489,-0.05863 0.0901,-0.11777 0.13567,-0.17743l0.97191,-0.74239c0,0 0.85715,-0.64287 1.50002,0.21429c0.64287,0.85715 -0.21429,1.50002 -0.21429,1.50002l-0.74239,0.54333c-1.15201,1.57407 -2.19165,2.78221 -3.75767,3.95673c0,0 -0.85715,0.64287 -1.50002,-0.21429c-0.24218,-0.32291 -0.27148,-0.6154 -0.21392,-0.85457c-0.21326,0.04723 -0.4706,0.02191 -0.7659,-0.15527c-0.45091,-0.27055 -0.54774,-0.62962 -0.52943,-0.92516c-0.14186,-0.21444 -0.18424,-0.42633 -0.18424,-0.42633c-0.07142,-0.35715 -0.14286,-0.71429 -0.21429,-1.07144l-0.02081,-0.42441c0,0 0,-1.07144 1.07144,-1.07144z" fill="#ffffff" stroke="none" stroke-width="0.5" stroke-linecap="butt"/><path d="M256.10461,188.19939c-0.17427,-0.03724 -0.35963,-0.13191 -0.545,-0.31726c-0.59029,-0.59029 -0.26075,-1.18057 -0.08639,-1.41253c-0.33939,-0.52343 -0.51453,-1.1683 -0.43247,-1.84275c0.15544,-1.27747 1.87132,-2.18067 2.7765,-2.85955c1.31869,-0.97338 2.79224,-1.22542 4.18942,-2.00549c0.90363,-0.5045 1.23674,-1.3188 2.55148,-0.99006c0.7567,0.18921 1.71763,0.48116 2.00513,1.20624c0.21194,0.53451 -1.06539,2.12512 -1.46022,2.64646c-0.69834,0.92207 -0.7732,1.18515 -1.83225,1.7912c-0.29095,0.16649 -0.67629,0.14404 -0.94463,0.34496c-0.24926,0.18662 -0.31784,0.54316 -0.53699,0.76436c-1.33378,1.34629 -2.71042,2.71042 -4.07148,4.07148c0,0 -0.75763,0.75763 -1.51525,0c-0.57757,-0.57757 -0.27453,-1.15513 -0.09787,-1.39704z" fill="#ffffff" stroke="none" stroke-width="0.5" stroke-linecap="butt"/><path d="M285.04226,176.91497c-0.10612,-0.32913 -0.02619,-0.64885 -0.02619,-0.64885l0.1823,-0.59729c0,-0.96696 -0.04552,-1.90145 -0.07771,-2.84039l-0.05994,0.02398l-0.41955,-1.04888c-0.05514,-0.1291 -0.08566,-0.27123 -0.08566,-0.42049c0,-0.59174 0.4797,-1.07144 1.07144,-1.07144c0.355,0 0.66967,0.17264 0.86463,0.43855l0.56916,0.75888c0.91154,0.72993 1.21355,1.44904 1.99482,2.23119c0.4654,0.46592 1.28573,0.84147 1.28573,1.50002c0,0.65855 -0.82006,1.03436 -1.28573,1.50002c-0.79265,0.79265 -1.92824,1.41932 -2.87737,1.9902c0,0 -0.91875,0.55125 -1.47,-0.3675c-0.48724,-0.81205 0.17393,-1.33701 0.33407,-1.44799z" fill="#ffffff" stroke="none" stroke-width="0.5" stroke-linecap="butt"/><path d="M296.11997,171.29338c-0.29665,-0.11534 -0.63574,-0.379 -0.63574,-0.98176c0,-1.07144 1.07144,-1.07144 1.07144,-1.07144l0.42441,0.0208c0.62073,0.29417 1.61316,0.24234 1.8622,0.88252c0.24655,0.63378 -0.5244,1.25495 -0.78659,1.88242c0,0 -0.64287,0.85715 -1.50002,0.21429c-0.4074,-0.30556 -0.47594,-0.65951 -0.4357,-0.94684z" fill="#ffffff" stroke="none" stroke-width="0.5" stroke-linecap="butt"/></g><g fill="none" stroke="#b8995e" stroke-width="2.5" stroke-linecap="round"><g><path d="M182.96727,198.90878l0.0899,19.86867"/><path d="M188.09177,218.68754l-4.85479,-10.96823l4.94469,-8.63073"/></g><g><path d="M196.32309,203.19236v15.5645"/><path d="M191.55478,203.09512c0,0 1.31454,-0.01229 2.29595,-0.02146c1.75362,-0.01639 7.33065,-0.06851 7.33065,-0.06851"/><path d="M191.46481,218.74959l9.6266,-0.08997"/></g><path d="M205.56851,219.18614l0.09476,-15.06765l10.13986,13.55141l-0.09476,-14.87811"/><path d="M228.40546,210.63733l4.77947,-0.29262c0,0 0.23779,1.12726 0.19507,1.85326c-0.0427,0.726 0.12612,2.05205 -0.4877,3.12128c-0.61382,1.06923 -1.21977,2.47026 -2.34096,3.12128c-1.12119,0.65102 -2.25616,0.73367 -3.70653,0.97541c-1.45035,0.24173 -2.71673,0.12548 -4.09669,-0.68278c-1.37996,-0.80826 -2.18928,-2.12371 -2.73112,-3.90161c-0.54184,-1.7779 -0.74698,-3.88694 -0.39016,-6.34011c0.35682,-2.45317 0.25197,-2.85796 1.9508,-4.38931c1.69884,-1.53135 2.97732,-1.83543 4.97454,-1.85326c1.99722,-0.01783 5.85241,0.58525 5.85241,0.58525"/><path d="M237.23164,219.3926l-0.09885,-17.29914c0,0 5.03649,-0.87172 8.00703,0.09885c2.97054,0.97058 2.95696,5.39728 3.06442,6.91966c0.10746,1.52237 0.13704,2.93542 -0.49426,4.64606c-0.63131,1.71064 -0.9516,2.32355 -2.0759,3.65754c-1.1243,1.33398 -1.4623,1.45294 -2.43654,1.69651c-1.45995,0.36498 -5.9659,0.28053 -5.9659,0.28053z"/><path d="M268.38023,206.56107c0.66195,1.19265 0.52247,1.6172 0.5893,3.44514c0.06682,1.82795 0.03505,3.40099 -0.29236,4.67788c-0.32741,1.27689 -0.63354,1.77865 -1.65675,2.92367c-1.02321,1.14502 -0.73874,1.13918 -2.43639,1.65675c-1.69765,0.51757 -2.57094,0.72244 -4.48297,0.68219c-1.91202,-0.04026 -3.11412,0.06136 -4.77533,-0.8771c-1.66121,-0.93846 -2.66835,-2.2997 -3.22061,-3.64005c-0.55225,-1.34033 -0.38907,-2.13433 -0.09745,-3.80077c0.29162,-1.66644 0.08746,-2.06226 1.46183,-3.99569c1.37437,-1.93343 1.98187,-2.99958 4.58043,-3.99569c2.59856,-0.99611 5.34822,-0.9871 7.11427,-0.48728c1.76605,0.49982 2.55408,2.21831 3.21604,3.41096z"/><path d="M272.88239,219.07757l-0.10857,-14.76578l5.88003,8.84004l5.95431,-8.73147l0.10857,14.87435"/><path d="M299.67235,201.65258c-1.45037,-1.64695 -4.0823,-0.61716 -5.61198,-0.35618c-1.52968,0.26098 -2.74008,0.07897 -3.48816,1.90877c-0.74809,1.8298 -0.61865,3.6054 0.72253,4.85587c1.34117,1.25047 2.52653,-1.0623 4.69457,0.19488c2.16804,1.25717 3.80675,1.97853 3.88809,4.78192c0.08134,2.80339 -0.84626,4.59061 -3.5755,5.99174c-2.72924,1.40113 -7.86014,-0.12093 -7.86014,-0.12093"/></g></g><path d="M144.68486,210.36673c0,0 0,-2.35254 2.35254,-2.35254c2.35254,0 2.35254,2.35254 2.35254,2.35254l-0.33526,-0.26936c0.57975,1.12501 1.68411,2.1106 1.73926,3.37501c0.06127,1.40442 -0.94586,2.64763 -1.41879,3.97145c-0.92967,0.70938 -1.71955,1.65516 -2.78904,2.12815c-4.84882,2.14442 -8.68108,-1.35951 -10.97614,-5.17184c-1.36279,-2.26375 -2.19006,-3.12676 -2.21728,-5.91544c-0.05474,-5.60867 4.77033,-13.50942 11.03676,-13.16436c0.97359,0.05361 1.79796,0.77869 2.74497,1.01096c2.11633,0.51907 4.1102,1.03296 6.09298,1.63592c-1.96268,-4.33434 -5.22988,-7.87054 -10.19388,-9.34137c-2.0749,-0.6148 -4.25559,-0.37297 -6.38726,-0.37297l-1.31146,0.40027c0,0 -2.28229,0.57057 -2.85287,-1.71172c-0.57057,-2.28229 1.71172,-2.85287 1.71172,-2.85287l2.4526,-0.54075c2.62137,0 5.17447,-0.20437 7.72796,0.56803c5.67164,1.71561 9.68696,5.50813 12.28154,10.28728c0.52956,-4.12868 0.16302,-8.0766 -3.69917,-11.4549c-1.06915,-0.93519 -2.77128,-2.30476 -4.11914,-2.90919c-2.32153,-1.04105 -4.9911,-1.69103 -7.47697,-2.183c0,0 -2.30685,-0.46137 -1.84548,-2.76822c0.46137,-2.30685 2.76822,-1.84548 2.76822,-1.84548c5.79273,1.16931 13.36657,3.54635 16.59605,9.06867c2.2199,3.79597 3.12518,8.89992 2.69243,13.23131c-0.62361,6.24156 -3.80292,11.63509 0.54941,17.2295c2.94524,1.41956 5.17369,1.35898 8.40167,1.35898h2.35254c0,0 2.35254,0 2.35254,2.35254c0,2.35254 -2.35254,2.35254 -2.35254,2.35254h-2.35254c-4.50336,0 -7.25122,-0.3068 -11.35964,-2.40509c-2.47625,-3.04754 -3.79862,-5.17569 -4.15909,-9.16357c-0.10286,-1.13792 -0.06853,-2.29275 0.04698,-3.45611c-0.00644,-0.02624 -0.00931,-0.04063 -0.00931,-0.04063c-0.02044,-0.10461 -0.04142,-0.2091 -0.06294,-0.31346c-1.85967,-0.79778 -3.77067,-1.65352 -5.69882,-2.09288c-1.01109,-0.23039 -5.34216,-1.69701 -6.49789,-1.08297c-2.6832,1.42554 -5.76586,6.64902 -4.41206,9.70773c1.28627,2.90615 3.81548,7.02689 7.23066,4.59288c0.38352,-0.60737 -0.16679,-1.50681 -0.62054,-2.06368l-0.33526,-2.15139z" data-paper-data="{&quot;index&quot;:null}" fill="url(#color-8)" stroke="none" stroke-width="0.5" stroke-linecap="butt"/><g stroke="none" stroke-width="0" stroke-linecap="butt"><path d="M174.6862,165.89366v-2.22804h66.38422v2.22804z" fill="url(#color-9)"/><path d="M240.74661,165.89366v-2.22804h66.38422v2.22804z" fill="url(#color-10)"/></g></g></g></g></svg>